<?xml version="1.0" encoding="UTF-8"?>
<svg version="1.1" xmlns="http://www.w3.org/2000/svg" width="2048" height="2048">
<path d="M0 0 C0.65726074 0.16628906 1.31452148 0.33257812 1.99169922 0.50390625 C31.55041654 8.28062116 52.90839757 26.47051538 73.875 47.8125 C76.3689366 50.34328176 78.86619272 52.87072433 81.3671875 55.39453125 C81.95937073 55.99230377 82.55155396 56.59007629 83.16168213 57.20596313 C86.69088261 60.74748424 90.30644633 64.11226176 94.12158203 67.34643555 C98.97336479 71.61744212 103.40184643 76.3681682 107.93359375 80.97265625 C111.52936227 84.60339172 115.12146956 88.17057357 119 91.5 C124.62812757 96.33132386 129.73436598 101.68997378 134.93359375 106.97265625 C138.52936227 110.60339172 142.12146956 114.17057357 146 117.5 C151.62812757 122.33132386 156.73436598 127.68997378 161.93359375 132.97265625 C165.51906059 136.59298987 169.09941892 140.15107054 172.96875 143.46875 C178.8368736 148.50609239 184.15483362 154.11172504 189.578125 159.6171875 C193.91389264 163.99285484 198.30124673 168.19046406 202.9765625 172.19921875 C207.85874816 176.54417549 212.35119502 181.31670377 216.93359375 185.97265625 C220.52936227 189.60339172 224.12146956 193.17057357 228 196.5 C233.62812757 201.33132386 238.73436598 206.68997378 243.93359375 211.97265625 C247.52936227 215.60339172 251.12146956 219.17057357 255 222.5 C260.62812757 227.33132386 265.73436598 232.68997378 270.93359375 237.97265625 C274.52936227 241.60339172 278.12146956 245.17057357 282 248.5 C287.62812757 253.33132386 292.73436598 258.68997378 297.93359375 263.97265625 C301.52936227 267.60339172 305.12146956 271.17057357 309 274.5 C314.62812757 279.33132386 319.73436598 284.68997378 324.93359375 289.97265625 C328.52936227 293.60339172 332.12146956 297.17057357 336 300.5 C341.62812757 305.33132386 346.73436598 310.68997378 351.93359375 315.97265625 C355.52936227 319.60339172 359.12146956 323.17057357 363 326.5 C368.62812757 331.33132386 373.73436598 336.68997378 378.93359375 341.97265625 C382.52936227 345.60339172 386.12146956 349.17057357 390 352.5 C395.62812757 357.33132386 400.73436598 362.68997378 405.93359375 367.97265625 C409.52936227 371.60339172 413.12146956 375.17057357 417 378.5 C422.62812757 383.33132386 427.73436598 388.68997378 432.93359375 393.97265625 C436.52936227 397.60339172 440.12146956 401.17057357 444 404.5 C449.62812757 409.33132386 454.73436598 414.68997378 459.93359375 419.97265625 C463.52936227 423.60339172 467.12146956 427.17057357 471 430.5 C476.62812757 435.33132386 481.73436598 440.68997378 486.93359375 445.97265625 C490.52936227 449.60339172 494.12146956 453.17057357 498 456.5 C503.62812757 461.33132386 508.73436598 466.68997378 513.93359375 471.97265625 C517.51906059 475.59298987 521.09941892 479.15107054 524.96875 482.46875 C530.8368736 487.50609239 536.15483362 493.11172504 541.578125 498.6171875 C545.91389264 502.99285484 550.30124673 507.19046406 554.9765625 511.19921875 C559.85874816 515.54417549 564.35119502 520.31670377 568.93359375 524.97265625 C572.52936227 528.60339172 576.12146956 532.17057357 580 535.5 C585.62812757 540.33132386 590.73436598 545.68997378 595.93359375 550.97265625 C599.52936227 554.60339172 603.12146956 558.17057357 607 561.5 C612.62812757 566.33132386 617.73436598 571.68997378 622.93359375 576.97265625 C626.52936227 580.60339172 630.12146956 584.17057357 634 587.5 C639.62812757 592.33132386 644.73436598 597.68997378 649.93359375 602.97265625 C653.52936227 606.60339172 657.12146956 610.17057357 661 613.5 C666.62812757 618.33132386 671.73436598 623.68997378 676.93359375 628.97265625 C680.52936227 632.60339172 684.12146956 636.17057357 688 639.5 C693.62812757 644.33132386 698.73436598 649.68997378 703.93359375 654.97265625 C707.52936227 658.60339172 711.12146956 662.17057357 715 665.5 C720.62812757 670.33132386 725.73436598 675.68997378 730.93359375 680.97265625 C734.52936227 684.60339172 738.12146956 688.17057357 742 691.5 C747.62812757 696.33132386 752.73436598 701.68997378 757.93359375 706.97265625 C761.52936227 710.60339172 765.12146956 714.17057357 769 717.5 C774.62812757 722.33132386 779.73436598 727.68997378 784.93359375 732.97265625 C788.52936227 736.60339172 792.12146956 740.17057357 796 743.5 C801.62812757 748.33132386 806.73436598 753.68997378 811.93359375 758.97265625 C815.52936227 762.60339172 819.12146956 766.17057357 823 769.5 C828.62812757 774.33132386 833.73436598 779.68997378 838.93359375 784.97265625 C842.52936227 788.60339172 846.12146956 792.17057357 850 795.5 C855.62812757 800.33132386 860.73436598 805.68997378 865.93359375 810.97265625 C869.52936227 814.60339172 873.12146956 818.17057357 877 821.5 C882.62812757 826.33132386 887.73436598 831.68997378 892.93359375 836.97265625 C897.1546141 841.2347238 901.43968391 845.30658559 905.99023438 849.21289062 C910.6434185 853.35056164 914.92548362 857.89008232 919.2890625 862.328125 C922.85321873 865.92902511 926.43000623 869.42819178 930.28125 872.72265625 C946.05276408 886.31192371 953.96776269 907.16506751 955.875 927.4375 C956.84981052 950.00079709 950.16414231 972.21876029 935.37109375 989.47265625 C930.06467014 995.12876181 924.85378388 1000.11733478 918.4375 1004.5 C917.71570557 1005.00136475 916.99391113 1005.50272949 916.25024414 1006.01928711 C913.83974202 1007.68880093 911.42093898 1009.34566051 909 1011 C908.11699219 1011.60473145 907.23398438 1012.20946289 906.32421875 1012.83251953 C901.65524995 1016.02798952 896.98037573 1019.21464452 892.30078125 1022.39453125 C887.73257206 1025.49914738 883.17465943 1028.61827611 878.625 1031.75 C877.6664209 1032.40971802 877.6664209 1032.40971802 876.68847656 1033.08276367 C875.42226955 1033.95445371 874.15615508 1034.82627818 872.89013672 1035.69824219 C862.96277708 1042.53532325 853.02367568 1049.35501108 843.07373047 1056.15917969 C835.37332341 1061.42615184 827.68541947 1066.71119245 820 1072 C810.70029814 1078.39969408 801.39220056 1084.7868389 792.07373047 1091.15917969 C784.37332341 1096.42615184 776.68541947 1101.71119245 769 1107 C759.70029814 1113.39969408 750.39220056 1119.7868389 741.07373047 1126.15917969 C733.37332341 1131.42615184 725.68541947 1136.71119245 718 1142 C708.70029814 1148.39969408 699.39220056 1154.7868389 690.07373047 1161.15917969 C682.37332341 1166.42615184 674.68541947 1171.71119245 667 1177 C657.70029814 1183.39969408 648.39220056 1189.7868389 639.07373047 1196.15917969 C632.02510096 1200.98034499 624.986731 1205.81630573 617.95166016 1210.65722656 C613.9661593 1213.39931496 609.97927838 1216.13939657 605.99267578 1218.87988281 C602.69650359 1221.14585064 599.40062803 1223.41224691 596.10546875 1225.6796875 C588.10329267 1231.18518464 580.09145005 1236.67634388 572.07373047 1242.15917969 C564.37332341 1247.42615184 556.68541947 1252.71119245 549 1258 C539.70029814 1264.39969408 530.39220056 1270.7868389 521.07373047 1277.15917969 C513.37332341 1282.42615184 505.68541947 1287.71119245 498 1293 C488.70029814 1299.39969408 479.39220056 1305.7868389 470.07373047 1312.15917969 C462.37332341 1317.42615184 454.68541947 1322.71119245 447 1328 C437.70029814 1334.39969408 428.39220056 1340.7868389 419.07373047 1347.15917969 C411.37332341 1352.42615184 403.68541947 1357.71119245 396 1363 C386.70029814 1369.39969408 377.39220056 1375.7868389 368.07373047 1382.15917969 C360.37332341 1387.42615184 352.68541947 1392.71119245 345 1398 C335.70029814 1404.39969408 326.39220056 1410.7868389 317.07373047 1417.15917969 C310.02510096 1421.98034499 302.986731 1426.81630573 295.95166016 1431.65722656 C291.9661593 1434.39931496 287.97927838 1437.13939657 283.99267578 1439.87988281 C280.69650359 1442.14585064 277.40062803 1444.41224691 274.10546875 1446.6796875 C266.10329267 1452.18518464 258.09145005 1457.67634388 250.07373047 1463.15917969 C242.37332341 1468.42615184 234.68541947 1473.71119245 227 1479 C217.70029814 1485.39969408 208.39220056 1491.7868389 199.07373047 1498.15917969 C191.37332341 1503.42615184 183.68541947 1508.71119245 176 1514 C166.70029814 1520.39969408 157.39220056 1526.7868389 148.07373047 1533.15917969 C140.37332341 1538.42615184 132.68541947 1543.71119245 125 1549 C115.70029814 1555.39969408 106.39220056 1561.7868389 97.07373047 1568.15917969 C89.37332341 1573.42615184 81.68541947 1578.71119245 74 1584 C64.70029814 1590.39969408 55.39220056 1596.7868389 46.07373047 1603.15917969 C39.02510096 1607.98034499 31.986731 1612.81630573 24.95166016 1617.65722656 C20.9661593 1620.39931496 16.97927838 1623.13939657 12.99267578 1625.87988281 C9.69650359 1628.14585064 6.40062803 1630.41224691 3.10546875 1632.6796875 C-4.90239222 1638.18909585 -12.91884726 1643.68574766 -20.94384766 1649.17016602 C-25.23843708 1652.10617442 -29.5258942 1655.05193242 -33.80395508 1658.01196289 C-36.42462508 1659.82146504 -39.05256584 1661.62018178 -41.68261719 1663.41601562 C-43.36472511 1664.56577502 -45.04479992 1665.71851067 -46.72363281 1666.87304688 C-89.04791028 1695.91388289 -135.30911698 1711.99103432 -187.00390625 1702.4453125 C-220.15685123 1695.7234388 -250.28479527 1681.24108326 -274.52978516 1657.43505859 C-275.94142302 1656.05717626 -277.38231394 1654.70945794 -278.82421875 1653.36328125 C-303.74940161 1629.57590987 -318.28676299 1597.3967856 -325 1564 C-325.14405273 1563.29568848 -325.28810547 1562.59137695 -325.43652344 1561.86572266 C-333.41978803 1520.47768383 -322.67418145 1473.94412481 -299.44921875 1439.06640625 C-297.07002058 1435.62737504 -294.55897168 1432.30723319 -292 1429 C-291.29488281 1428.071875 -290.58976562 1427.14375 -289.86328125 1426.1875 C-266.59512019 1396.59693659 -235.47741932 1380.97155813 -202.29321289 1365.00160217 C-192.70907536 1360.38631203 -183.15693072 1355.70625187 -173.60559082 1351.02355957 C-168.61563483 1348.57752676 -163.62424649 1346.13442126 -158.6328125 1343.69140625 C-157.65171509 1343.21118011 -156.67061768 1342.73095398 -155.65979004 1342.23617554 C-145.94433087 1337.48161094 -136.22268809 1332.73975998 -126.5 1328 C-111.82674765 1320.84675814 -97.16123222 1313.67784521 -82.5 1306.5 C-67.00578668 1298.91434395 -51.50592193 1291.34045042 -35.99902344 1283.78076172 C-22.15960851 1277.0335752 -8.32825116 1270.27003439 5.5 1263.5 C20.99084177 1255.91599459 36.4870725 1248.34320828 51.99090576 1240.78579712 C61.96939042 1235.92153911 71.94449601 1231.05048265 81.9140625 1226.16796875 C83.43969818 1225.42089157 83.43969818 1225.42089157 84.99615479 1224.65872192 C89.88140188 1222.26634199 94.76624778 1219.87314908 99.65039062 1217.47851562 C115.74074743 1209.59670565 131.87103537 1201.80433772 148 1194 C17.98 1193.67 -112.04 1193.34 -246 1193 C-246 1060.67 -246 928.34 -246 792 C-248.97 791.34 -251.94 790.68 -255 790 C-257.18673775 789.39031279 -259.36618888 788.753666 -261.53613281 788.08666992 C-262.75700089 787.71330505 -263.97786896 787.33994019 -265.23573303 786.95526123 C-266.55821204 786.54704573 -267.88067554 786.13877996 -269.203125 785.73046875 C-270.61399228 785.29771607 -272.02496002 784.86529079 -273.4360199 784.4331665 C-276.4578153 783.5071018 -279.47895988 782.57895478 -282.49960327 781.6491394 C-287.32782751 780.16300109 -292.1575375 778.68173439 -296.98754883 777.20141602 C-298.64332797 776.6939005 -300.29910494 776.18637788 -301.95487976 775.67884827 C-302.78055639 775.42576464 -303.60623302 775.17268101 -304.45693016 774.91192818 C-306.98785789 774.13596429 -309.51864511 773.35954374 -312.0493927 772.58299255 C-327.8807308 767.7256953 -343.7216862 762.900272 -359.56520462 758.08287811 C-363.1333404 756.99782805 -366.70130777 755.91222452 -370.26928711 754.82666016 C-378.84603676 752.21726492 -387.42300174 749.6085779 -396 747 C-407.43766875 743.5213879 -418.87521496 740.04237349 -430.3125 736.5625 C-431.02316746 736.34628494 -431.73383492 736.13006989 -432.46603775 735.90730286 C-453.61998101 729.47127717 -474.76848687 723.01764441 -495.91333008 716.55178833 C-522.84860452 708.31539313 -549.78981212 700.09871118 -576.7388382 691.90741348 C-579.26638482 691.13901938 -581.79382306 690.37026981 -584.32122803 689.60140991 C-588.31470868 688.38662158 -592.30850323 687.17287038 -596.30252075 685.9598484 C-597.83468266 685.4943598 -599.36674761 685.02855191 -600.89871216 684.56241417 C-608.53770927 682.23840119 -616.18064599 679.93421132 -623.85205078 677.71923828 C-625.68028633 677.18857254 -625.68028633 677.18857254 -627.54545593 676.64718628 C-629.75896714 676.00729356 -631.97444372 675.37413171 -634.19245911 674.75003052 C-655.89194033 668.47348097 -675.03234986 656.70008399 -692 642 C-692.82886719 641.29359375 -693.65773438 640.5871875 -694.51171875 639.859375 C-726.91535057 611.57614221 -747.7605608 569.9494651 -751 527 C-752.76013388 482.54044819 -742.45538769 440.67744178 -715 405 C-714.30519531 404.08089844 -713.61039063 403.16179687 -712.89453125 402.21484375 C-696.21605059 380.96777364 -675.48713321 366.96923595 -652.55778503 353.3157959 C-646.59587326 349.76559251 -640.66503456 346.16536257 -634.73791504 342.5574646 C-631.82664694 340.78605295 -628.9132113 339.01821338 -626 337.25 C-624.83332302 336.54168365 -623.66665635 335.83335032 -622.5 335.125 C-564.75 300.0625 -507 265 -165.75004578 57.81253052 C-164.5832233 57.10410077 -163.41640404 56.39566571 -162.24958801 55.68722534 C-159.33533165 53.91782365 -156.42101957 52.14851386 -153.5065918 50.37939453 C-147.04226074 46.45525725 -140.57936002 42.52878358 -134.11820984 38.59941101 C-129.45547833 35.76436144 -124.78880437 32.93585213 -120.12104797 30.10908508 C-116.16625613 27.71226607 -112.22256381 25.29780683 -108.28125 22.87890625 C-91.00663004 12.31903997 -74.82481153 3.52875612 -55 -1 C-53.96230469 -1.24621094 -52.92460938 -1.49242187 -51.85546875 -1.74609375 C-35.14740529 -4.98929215 -16.47671517 -4.19452333 0 0 Z M-38.5 289.5 C-39.77625176 290.61193169 -41.05360015 291.72260592 -42.33203125 292.83203125 C-42.95932129 293.37682129 -43.58661133 293.92161133 -44.23291016 294.48291016 C-47.28725282 297.10513803 -50.4408508 299.59695736 -53.59765625 302.09375 C-56.12721017 304.10094075 -58.62825938 306.13965331 -61.125 308.1875 C-65.73923197 311.97169307 -70.36690199 315.73893156 -75 319.5 C-79.50647495 323.15882097 -84.00976129 326.82125021 -88.5 330.5 C-93.68694061 334.74954171 -98.89199885 338.97655773 -104.09765625 343.203125 C-107.90445347 346.29479333 -111.70647112 349.39204863 -115.5 352.5 C-120.68694061 356.74954171 -125.89199885 360.97655773 -131.09765625 365.203125 C-134.90445347 368.29479333 -138.70647112 371.39204863 -142.5 374.5 C-147.68694061 378.74954171 -152.89199885 382.97655773 -158.09765625 387.203125 C-161.90445347 390.29479333 -165.70647112 393.39204863 -169.5 396.5 C-174.68694061 400.74954171 -179.89199885 404.97655773 -185.09765625 409.203125 C-188.90445347 412.29479333 -192.70647112 415.39204863 -196.5 418.5 C-201.68694061 422.74954171 -206.89199885 426.97655773 -212.09765625 431.203125 C-215.90445347 434.29479333 -219.70647112 437.39204863 -223.5 440.5 C-227.99023908 444.17875009 -232.49357315 447.84111937 -237 451.5 C-243.34523326 456.65220766 -249.67830794 461.81891905 -256 467 C-263.01791256 472.75168369 -270.05220257 478.48275956 -277.09643555 484.20214844 C-281.76118057 487.99056054 -286.41595917 491.79083237 -291.0625 495.6015625 C-293.41157091 497.5195539 -295.76625486 499.42989163 -298.125 501.3359375 C-298.84751953 501.92052734 -299.57003906 502.50511719 -300.31445312 503.10742188 C-301.74428165 504.26380687 -303.17522773 505.41881177 -304.60742188 506.57226562 C-305.5906543 507.36793945 -305.5906543 507.36793945 -306.59375 508.1796875 C-307.17833984 508.65132324 -307.76292969 509.12295898 -308.36523438 509.60888672 C-309.99846106 510.99869043 -311.50557345 512.46305372 -313 514 C-307.13727049 519.37946764 -301.15946016 524.55131747 -294.9765625 529.55859375 C-291.65215877 532.28530284 -288.38395641 535.0707296 -285.125 537.875 C-280.04894623 542.24271889 -274.95883152 546.5922679 -269.84008789 550.90991211 C-267.05367319 553.26037743 -264.27462479 555.61865891 -261.5078125 557.9921875 C-260.64265015 558.73166626 -260.64265015 558.73166626 -259.76000977 559.48608398 C-258.66714105 560.42051581 -257.57631393 561.35734342 -256.48803711 562.29711914 C-253.09992386 565.18741391 -249.75251215 567.49832524 -246 570 C-246 549.87 -246 529.74 -246 509 C-87.27 509 71.46 509 235 509 C231.54220519 504.85064623 229.12119428 502.06442077 225.0625 498.875 C220.63115309 495.33230812 216.29308749 491.70891822 212 488 C207.8758134 484.44491659 203.727899 480.93205919 199.5 477.5 C194.65323525 473.56556744 189.91720745 469.51445426 185.18920898 465.43920898 C181.68764698 462.42754991 178.15213443 459.4694105 174.5625 456.5625 C169.45772157 452.42003621 164.50377318 448.11880901 159.54931641 443.79931641 C155.04040674 439.87737896 150.45292983 436.06960885 145.80859375 432.30859375 C142.4970152 429.58655909 139.24686941 426.79860269 136 424 C131.875357 420.44542508 127.72792096 416.93207702 123.5 413.5 C118.09923828 409.11287098 112.825323 404.58776588 107.55078125 400.05078125 C100.28968997 393.80572679 92.99446571 387.6036885 85.5625 381.5625 C80.14429421 377.15086945 74.8472915 372.60676358 69.55078125 368.05078125 C62.31183876 361.82477633 55.04134091 355.6391376 47.625 349.625 C42.50266476 345.45843577 37.52582622 341.13798719 32.54956055 336.79956055 C28.04060043 332.8775046 23.45301936 329.06968135 18.80859375 325.30859375 C15.4970152 322.58655909 12.24686941 319.79860269 9 317 C4.875357 313.44542508 0.72792096 309.93207702 -3.5 306.5 C-8.96483942 302.06183899 -14.30649447 297.48798321 -19.640625 292.89453125 C-20.18654297 292.42611816 -20.73246094 291.95770508 -21.29492188 291.47509766 C-22.50712204 290.42639871 -23.71069205 289.36768776 -24.90820312 288.30224609 C-25.53146484 287.75262207 -26.15472656 287.20299805 -26.796875 286.63671875 C-27.36245117 286.13229248 -27.92802734 285.62786621 -28.51074219 285.1081543 C-32.48520418 282.15076364 -35.55182352 286.89332613 -38.5 289.5 Z M438 680 C438 803.09 438 926.18 438 1053 C449.19675228 1047.69627524 460.33586394 1042.39467321 471.375 1036.79296875 C478.1009165 1033.40182929 484.88006005 1030.1349079 491.6796875 1026.89453125 C503.17451803 1021.41486055 514.61249052 1015.82362366 526.0390625 1010.20324707 C531.84502791 1007.34764179 537.65305969 1004.49624446 543.4609375 1001.64453125 C544.62034851 1001.07515839 545.77975952 1000.50578552 546.9743042 999.91915894 C557.30792221 994.84575518 567.65155582 989.79307998 578 984.75 C581.30991441 983.13675687 584.61980698 981.52346893 587.9296875 979.91015625 C588.74804077 979.51129211 589.56639404 979.11242798 590.4095459 978.70147705 C600.31842398 973.87111102 610.221822 969.02953868 620.125 964.1875 C621.51609985 963.50741882 621.51609985 963.50741882 622.93530273 962.81359863 C633.71672846 957.54266899 644.49626742 952.26790686 655.2734375 946.98828125 C676.48629101 936.59748032 697.70656107 926.22486576 719 916 C715.49863378 912.4085251 711.8531343 909.08829759 708 905.875 C706.8436987 904.90370691 705.68745018 903.93235097 704.53125 902.9609375 C703.94472656 902.46948242 703.35820313 901.97802734 702.75390625 901.47167969 C699.99502195 899.15673612 697.2479257 896.82792976 694.5 894.5 C693.41930763 893.585894 692.33857835 892.67183162 691.2578125 891.7578125 C689.06301858 889.90088223 686.87057029 888.04123031 684.6796875 886.1796875 C679.6747702 881.93034079 674.65816375 877.70319309 669.5625 873.5625 C664.14429421 869.15086945 658.8472915 864.60676358 653.55078125 860.05078125 C646.28968997 853.80572679 638.99446571 847.6036885 631.5625 841.5625 C626.14429421 837.15086945 620.8472915 832.60676358 615.55078125 828.05078125 C608.28968997 821.80572679 600.99446571 815.6036885 593.5625 809.5625 C588.14143044 805.1485377 582.84158026 800.60217195 577.54296875 796.04296875 C572.59441284 791.78648075 567.6052146 787.57832994 562.61767578 783.36767578 C560.97091021 781.97540583 559.32689933 780.57994527 557.68359375 779.18359375 C552.67765348 774.93259941 547.6595962 770.70435708 542.5625 766.5625 C537.14429421 762.15086945 531.8472915 757.60676358 526.55078125 753.05078125 C519.28968997 746.80572679 511.99446571 740.6036885 504.5625 734.5625 C499.14429421 730.15086945 493.8472915 725.60676358 488.55078125 721.05078125 C481.28968997 714.80572679 473.99446571 708.6036885 466.5625 702.5625 C461.08030852 698.09969113 455.71547517 693.50701069 450.359375 688.89453125 C449.54049805 688.19191162 449.54049805 688.19191162 448.70507812 687.47509766 C447.49287796 686.42639871 446.28930795 685.36768776 445.09179688 684.30224609 C444.46853516 683.75262207 443.84527344 683.20299805 443.203125 682.63671875 C442.63754883 682.13229248 442.07197266 681.62786621 441.48925781 681.1081543 C440.04196305 679.8010115 440.04196305 679.8010115 438 680 Z " fill="#FA814A" transform="translate(928,173)"/>
<path d="M0 0 C113.355 -0.0309375 113.355 -0.0309375 229 -0.0625 C252.39519531 -0.071604 275.79039062 -0.08070801 299.89453125 -0.09008789 C335.25539938 -0.09784382 335.25539938 -0.09784382 350.53908539 -0.09771228 C351.72765483 -0.09770318 352.91622427 -0.09769408 354.14081097 -0.09768471 C355.95829704 -0.09767062 355.95829704 -0.09767062 357.8125 -0.09765625 C359.06417874 -0.09767172 360.31585749 -0.09768719 361.60546589 -0.09770313 C468.73916085 -0.09865709 575.86860211 0.31465363 683 1 C683.68594729 95.1169743 684.1257717 189.23125881 684.12946078 337.25689994 C684.12497615 352.34631811 684.12583427 367.43572844 684.13037109 382.52514648 C684.15641448 471.45070731 684.03701415 560.37016574 683 683 C644.74987886 683.17988617 606.49968753 683.3413691 568.24943709 683.49095565 C565.9473792 683.49996135 563.64532141 683.50899333 561.34326363 683.51802588 C471.32914316 683.87059999 381.31560004 684.04702888 291.30078125 684.06640625 C288.27896535 684.06709853 285.25714945 684.06779131 282.23533355 684.0684896 C188.15689592 684.08769136 94.07841387 684.03235159 0 684 C0 458.28 0 232.56 0 0 Z " fill="#000000" transform="translate(682,682)"/>
<path d="M0 0 C1.20970459 0.00523682 2.41940918 0.01047363 3.66577148 0.01586914 C4.97094727 0.0190918 6.27612305 0.02231445 7.62084961 0.02563477 C9.00952213 0.03399138 10.39819401 0.04245634 11.78686523 0.05102539 C13.17944179 0.05603873 14.57202005 0.06060193 15.96459961 0.06469727 C19.38456394 0.07653105 22.80444367 0.09301659 26.22436523 0.11352539 C26.95417603 1.8440918 26.95417603 1.8440918 27.69873047 3.60961914 C37.57466482 27.02539668 47.46913558 50.43302543 57.42457581 73.81512451 C58.37680566 76.05358458 59.32682653 78.29297229 60.27661133 80.5324707 C61.67040248 83.81750939 63.07715905 87.0967438 64.48852539 90.37426758 C65.23001327 92.10761718 65.9713899 93.84101437 66.71264648 95.57446289 C67.06409225 96.38468903 67.41553802 97.19491516 67.77763367 98.0296936 C68.09819229 98.78229462 68.41875092 99.53489563 68.74902344 100.31030273 C69.03445511 100.97363617 69.31988678 101.6369696 69.6139679 102.32040405 C70.22436523 104.11352539 70.22436523 104.11352539 70.22436523 107.11352539 C59.99436523 107.11352539 49.76436523 107.11352539 39.22436523 107.11352539 C32.22436523 91.71352539 32.22436523 91.71352539 32.22436523 88.11352539 C18.36436523 88.11352539 4.50436523 88.11352539 -9.77563477 88.11352539 C-10.76563477 91.08352539 -11.75563477 94.05352539 -12.77563477 97.11352539 C-13.49530871 99.13775878 -14.22280173 101.1592561 -14.96313477 103.17602539 C-15.4794043 104.58561523 -15.4794043 104.58561523 -16.00610352 106.02368164 C-16.26004883 106.71333008 -16.51399414 107.40297852 -16.77563477 108.11352539 C-25.98988318 109.0463245 -35.20962333 109.68882047 -44.46313477 110.05102539 C-45.47170029 110.0906093 -45.47170029 110.0906093 -46.50064087 110.13099289 C-71.83624434 111.00895416 -71.83624434 111.00895416 -79.42260742 105.0871582 C-85.77470568 98.81375896 -90.12144227 90.38416359 -92.92182922 81.95278931 C-93.65203912 79.77459052 -93.65203912 79.77459052 -95.77563477 77.11352539 C-99.07563477 76.78352539 -102.37563477 76.45352539 -105.77563477 76.11352539 C-105.77563477 86.67352539 -105.77563477 97.23352539 -105.77563477 108.11352539 C-115.67563477 108.11352539 -125.57563477 108.11352539 -135.77563477 108.11352539 C-135.77563477 72.80352539 -135.77563477 37.49352539 -135.77563477 1.11352539 C-126.12313477 1.03102539 -116.47063477 0.94852539 -106.52563477 0.86352539 C-103.50246094 0.82710937 -100.47928711 0.79069336 -97.36450195 0.75317383 C-94.93384509 0.74147734 -92.5031803 0.7312878 -90.07250977 0.72290039 C-88.22133545 0.69220459 -88.22133545 0.69220459 -86.33276367 0.66088867 C-73.75528121 0.65589166 -62.59097043 4.04525594 -52.77563477 12.11352539 C-50.30321239 14.91896793 -48.48180849 17.79403094 -46.77563477 21.11352539 C-46.2690332 22.03391602 -46.2690332 22.03391602 -45.75219727 22.97290039 C-41.84683471 31.35688974 -42.73466862 42.33315182 -45.74047852 50.87524414 C-48.93583384 57.7844464 -54.44050496 63.90231194 -60.77563477 68.11352539 C-62.42563477 68.44352539 -64.07563477 68.77352539 -65.77563477 69.11352539 C-59.17563477 79.01352539 -52.57563477 88.91352539 -45.77563477 99.11352539 C-43.5266613 95.7400652 -42.02693316 92.22936476 -40.45922852 88.51196289 C-40.13070892 87.73929077 -39.80218933 86.96661865 -39.4637146 86.17053223 C-38.37690664 83.61124102 -37.29488092 81.04995978 -36.21313477 78.48852539 C-35.45564905 76.70089271 -34.69807944 74.91329558 -33.94042969 73.12573242 C-27.71351455 58.41398113 -21.57961083 43.66378513 -15.48632812 28.89624023 C-12.46867554 21.58451689 -9.44515805 14.27560564 -6.34985352 6.99633789 C-5.87507568 5.87888184 -5.40029785 4.76142578 -4.91113281 3.61010742 C-3.33114765 0.13624625 -3.33114765 0.13624625 0 0 Z " fill="#FCFCFC" transform="translate(993.775634765625,915.886474609375)"/>
<path d="M0 0 C84.48 0 168.96 0 256 0 C256 14.19 256 28.38 256 43 C171.52 43 87.04 43 0 43 C0 28.81 0 14.62 0 0 Z " fill="#FDFDFD" transform="translate(757,1237)"/>
<path d="M0 0 C10.02375 -0.0825 20.0475 -0.165 30.375 -0.25 C33.5207959 -0.28641602 36.6665918 -0.32283203 39.90771484 -0.36035156 C42.4254488 -0.37204358 44.94319037 -0.38223419 47.4609375 -0.390625 C49.39223511 -0.4213208 49.39223511 -0.4213208 51.36254883 -0.45263672 C59.11245384 -0.45561573 65.07789308 0.45618204 72 4 C72.91394531 4.45761719 73.82789063 4.91523437 74.76953125 5.38671875 C80.33518323 8.93043215 84.09100555 12.56056895 86 19 C87.04261372 26.93592758 87.09126178 34.29581433 82.5703125 41.12890625 C79.55711945 44.7192532 76.21411638 47.89294181 72 50 C72.56847656 50.268125 73.13695312 50.53625 73.72265625 50.8125 C80.9645165 54.48783475 86.5643586 59.20357668 89.9375 66.75 C92.15919581 73.76007126 92.17945243 82.28629008 89.16796875 89.05859375 C83.58527139 98.33819437 76.82616401 102.78204778 66.62792969 105.58325195 C59.61170193 107.29581951 52.89453133 107.38240359 45.703125 107.29296875 C44.53571777 107.28994751 43.36831055 107.28692627 42.16552734 107.28381348 C37.8602599 107.26827554 33.5551198 107.22639339 29.25 107.1875 C19.5975 107.125625 9.945 107.06375 0 107 C0 71.69 0 36.38 0 0 Z " fill="#FDFDFD" transform="translate(758,917)"/>
<path d="M0 0 C28 0 28 0 35.08984375 6.55078125 C36.65655518 8.78756714 36.65655518 8.78756714 37.62597656 10.77294922 C38.00500122 11.51510681 38.38402588 12.2572644 38.77453613 13.02191162 C39.15831421 13.77780579 39.54209229 14.53369995 39.9375 15.3125 C40.81086729 16.83691029 41.69477704 18.35532663 42.58886719 19.86767578 C44.33584813 22.8457378 46.03056251 25.84414862 47.68505859 28.87451172 C50.67929129 34.30168478 54.15588659 39.32684612 57.75 44.375 C58.74722584 45.81863406 59.74228913 47.26376636 60.734375 48.7109375 C61.48203125 49.79632812 62.2296875 50.88171875 63 52 C63.66 52.99 64.32 53.98 65 55 C65.33 37.18 65.66 19.36 66 1 C75.57 1 85.14 1 95 1 C95 35.98 95 70.96 95 107 C86.42 107 77.84 107 69 107 C61.81067518 99.18248175 61.81067518 99.18248175 60.22265625 95.5625 C58.07426305 91.01726651 55.42206544 87.07780774 52.5 83 C51.58698917 81.67774779 50.67683637 80.35351761 49.76953125 79.02734375 C47.87283487 76.26832863 45.97413297 73.51070639 44.07421875 70.75390625 C43.59082031 70.05201172 43.10742188 69.35011719 42.609375 68.62695312 C41.6997626 67.30626589 40.78965399 65.98592019 39.87890625 64.66601562 C36.53480478 59.80886211 33.27223506 54.9083526 30 50 C29.67 68.81 29.34 87.62 29 107 C19.43 107 9.86 107 0 107 C0 71.69 0 36.38 0 0 Z " fill="#FDFDFD" transform="translate(1110,916)"/>
<path d="M0 0 C28.38 0 56.76 0 86 0 C86 8.25 86 16.5 86 25 C67.52 25 49.04 25 30 25 C30 30.28 30 35.56 30 41 C46.83 41 63.66 41 81 41 C81 48.59 81 56.18 81 64 C64.17 64 47.34 64 30 64 C30 69.61 30 75.22 30 81 C48.81 81 67.62 81 87 81 C87 89.25 87 97.5 87 106 C58.29 106 29.58 106 0 106 C0 71.02 0 36.04 0 0 Z " fill="#FAFAFA" transform="translate(836,768)"/>
<path d="M0 0 C1.32 1.32 2.64 2.64 4 4 C-0.29 10.27 -4.58 16.54 -9 23 C-12.42025066 22.14493734 -14.98278934 21.13655906 -18.125 19.625 C-26.99305965 15.56733345 -37.50130987 11.21069485 -47.2578125 14.83984375 C-49.30765948 15.95170272 -49.30765948 15.95170272 -50 18.875 C-50.27717268 21.98966902 -50.27717268 21.98966902 -48.625 24.1875 C-43.40829618 27.78950978 -37.4136332 28.91468593 -31.31152344 30.37841797 C-18.00839258 33.58289075 -4.08756385 37.01842392 4 49 C8.21494852 56.10879377 8.1294568 63.9880897 7 72 C4.2670799 81.04966948 -0.94382973 87.51345712 -9.08984375 92.203125 C-11.35832992 93.30249985 -13.61809307 94.17549375 -16 95 C-16.825 95.2990625 -17.65 95.598125 -18.5 95.90625 C-38.51481171 102.04715814 -58.51532004 97.41535334 -76.5390625 88 C-79.63525374 86.21077888 -82.29207411 84.32404367 -85 82 C-83.66262108 78.0975969 -81.99255318 75.57136201 -79.1875 72.5625 C-76.02093455 69.11330849 -72.96968351 65.61930178 -70 62 C-67.58623143 63.19790003 -65.18732363 64.41970132 -62.79296875 65.65625 C-61.59121884 66.27097608 -60.38939404 66.88555577 -59.1875 67.5 C-58.59646484 67.80808594 -58.00542969 68.11617187 -57.39648438 68.43359375 C-50.52055921 71.92779345 -44.42066823 73.33572584 -36.8125 73.25 C-35.76545898 73.26160156 -35.76545898 73.26160156 -34.69726562 73.2734375 C-29.50158112 73.27844758 -29.50158112 73.27844758 -25 71 C-24.18129815 67.43793339 -24.18129815 67.43793339 -24 64 C-27.05011581 61.44742081 -29.75845024 60.24588037 -33.5625 59.125 C-34.70589844 58.7846875 -35.84929687 58.444375 -37.02734375 58.09375 C-39.90174092 57.28236302 -42.78959658 56.55050291 -45.69140625 55.84375 C-59.44437314 52.47358211 -71.24579788 48.91808299 -79.08984375 36.23828125 C-82.57216539 28.84035371 -82.33602071 19.2478607 -79.93359375 11.609375 C-75.17498725 1.28825572 -67.59185342 -5.05884524 -57 -9 C-37.56063831 -14.18382978 -16.94897106 -10.57281915 0 0 Z " fill="#FCFCFC" transform="translate(1296,926)"/>
<path d="M0 0 C31.02 0 62.04 0 94 0 C94 8.58 94 17.16 94 26 C83.44 26 72.88 26 62 26 C62 52.73 62 79.46 62 107 C52.1 107 42.2 107 32 107 C32 80.27 32 53.54 32 26 C21.44 26 10.88 26 0 26 C0 17.42 0 8.84 0 0 Z " fill="#FAFAFA" transform="translate(932,768)"/>
<path d="M0 0 C9.57 0 19.14 0 29 0 C29.11339987 10.22343448 29.20494456 20.44644462 29.25906086 30.67036819 C29.28504675 35.41883138 29.32024102 40.16683835 29.37719727 44.91503906 C29.43191315 49.50570853 29.46150311 54.0959419 29.47438622 58.68691254 C29.48355564 60.42986659 29.50145979 62.17279941 29.52865028 63.91556549 C29.73452604 77.67032849 28.16787932 88.72251451 18.16796875 99.09765625 C9.94836402 106.31017428 -0.44018704 109.58934653 -11.25 109.5 C-12.07556396 109.49355469 -12.90112793 109.48710938 -13.75170898 109.48046875 C-25.86678245 109.12223683 -35.33931036 104.40989747 -44 96 C-45.03281424 94.69192029 -46.04484199 93.36581512 -47 92 C-45.60652624 88.84795019 -43.97514921 86.73828227 -41.5234375 84.328125 C-40.853125 83.66425781 -40.1828125 83.00039063 -39.4921875 82.31640625 C-38.44417969 81.29353516 -38.44417969 81.29353516 -37.375 80.25 C-36.66859375 79.55261719 -35.9621875 78.85523438 -35.234375 78.13671875 C-33.49401297 76.41987512 -31.74915019 74.70788168 -30 73 C-26.28828073 74.23723976 -24.7446651 76.2553349 -22 79 C-17.35409406 81.89122902 -12.29512913 81.77661894 -7 81 C-3.33257266 78.35945232 -1.76265644 76.37492844 -1 72 C-0.88419962 69.64736151 -0.82350146 67.29183378 -0.79467773 64.93652344 C-0.78477814 64.23368225 -0.77487854 63.53084106 -0.76467896 62.80670166 C-0.73317216 60.49096 -0.70834951 58.17519785 -0.68359375 55.859375 C-0.66301487 54.25082882 -0.64201815 52.64228794 -0.62062073 51.03375244 C-0.56549652 46.8055043 -0.51604479 42.57720814 -0.46777344 38.34887695 C-0.41748784 34.03202046 -0.36183865 29.71523348 -0.30664062 25.3984375 C-0.19917712 16.93234891 -0.09820187 8.46620109 0 0 Z " fill="#FDFDFD" transform="translate(794,768)"/>
<path d="M0 0 C9.57 0 19.14 0 29 0 C29 34.98 29 69.96 29 106 C19.43 106 9.86 106 0 106 C0 71.02 0 36.04 0 0 Z " fill="#FFFFFF" transform="translate(1070,917)"/>
<path d="M0 0 C3.155625 -0.061875 6.31125 -0.12375 9.5625 -0.1875 C10.5429126 -0.21481201 11.5233252 -0.24212402 12.53344727 -0.27026367 C18.89094893 -0.3302097 23.59184629 0.3933242 28.77734375 4.359375 C31.0715083 7.10928268 31.99243016 8.9470111 32.5 12.5 C31.94038574 16.41729985 31.24918416 18.73505525 29 22 C22.9550024 26.49312322 17.92029342 26.49699017 10.5625 26.25 C7.076875 26.1675 3.59125 26.085 0 26 C0 17.42 0 8.84 0 0 Z " fill="#050505" transform="translate(888,942)"/>
<path d="M0 0 C3.87542277 -0.0811135 7.74913882 -0.1405605 11.625 -0.1875 C13.26662109 -0.22520508 13.26662109 -0.22520508 14.94140625 -0.26367188 C25.28821508 -0.35773377 25.28821508 -0.35773377 30 3 C32.45566118 6.68349177 32.6915246 9.72119156 32 14 C29.36055132 17.85765576 26.43717594 18.87124472 22 20 C18.20426469 20.2363698 14.42614611 20.18876116 10.625 20.125 C9.60277344 20.11597656 8.58054687 20.10695313 7.52734375 20.09765625 C5.0181276 20.07420563 2.50903284 20.03833836 0 20 C0 13.4 0 6.8 0 0 Z " fill="#040404" transform="translate(787,980)"/>
<path d="M0 0 C3.39631472 -0.08107913 6.79068616 -0.14053944 10.1875 -0.1875 C11.14720703 -0.21263672 12.10691406 -0.23777344 13.09570312 -0.26367188 C21.94572693 -0.35554063 21.94572693 -0.35554063 26 3 C28 5 28 5 28.4375 8.3125 C27.89444451 12.88968196 26.51844617 14.15173405 23 17 C20.54724859 18.2263757 18.9494219 18.11415314 16.2109375 18.09765625 C15.26992188 18.09443359 14.32890625 18.09121094 13.359375 18.08789062 C11.88210938 18.07532227 11.88210938 18.07532227 10.375 18.0625 C9.38242187 18.05798828 8.38984375 18.05347656 7.3671875 18.04882812 C4.91143278 18.03702161 2.45570894 18.01908582 0 18 C0 12.06 0 6.12 0 0 Z " fill="#010101" transform="translate(787,941)"/>
<path d="M0 0 C0.66 0 1.32 0 2 0 C3.67482275 4.26767998 5.33845499 8.53963493 7 12.8125 C7.47695313 14.02744141 7.95390625 15.24238281 8.4453125 16.49414062 C8.89648438 17.65751953 9.34765625 18.82089844 9.8125 20.01953125 C10.23144531 21.09307861 10.65039062 22.16662598 11.08203125 23.27270508 C12 26 12 26 12 29 C4.41 29 -3.18 29 -11 29 C-7.625 18.875 -7.625 18.875 -5.95703125 14.74609375 C-5.43012695 13.43608398 -5.43012695 13.43608398 -4.89257812 12.09960938 C-4.53615234 11.22111328 -4.17972656 10.34261719 -3.8125 9.4375 C-3.44447266 8.52419922 -3.07644531 7.61089844 -2.69726562 6.66992188 C-1.80056454 4.44563736 -0.90144402 2.22236555 0 0 Z " fill="#070707" transform="translate(1004,952)"/>
</svg>
