<?xml version="1.0" standalone="no"?>
<!DOCTYPE svg PUBLIC "-//W3C//DTD SVG 20010904//EN"
 "http://www.w3.org/TR/2001/REC-SVG-20010904/DTD/svg10.dtd">
<svg version="1.0" xmlns="http://www.w3.org/2000/svg"
 width="241.000000pt" height="209.000000pt" viewBox="0 0 241.000000 209.000000"
 preserveAspectRatio="xMidYMid meet">

<g transform="translate(0.000000,209.000000) scale(0.100000,-0.100000)"
fill="#000000" stroke="none">
<path d="M1088 1958 c-55 -15 -113 -70 -132 -125 -24 -71 -28 -132 -18 -308
11 -185 16 -167 -103 -334 -38 -53 -82 -129 -100 -175 -18 -44 -49 -115 -69
-156 -26 -53 -36 -88 -36 -122 l0 -48 38 6 c51 8 78 -15 176 -155 139 -199
160 -257 117 -328 -34 -55 -43 -55 -361 24 -80 19 -149 39 -154 44 -6 5 -1 24
12 48 26 47 27 69 5 130 -24 68 -15 84 45 77 64 -9 93 8 108 61 16 55 2 63
-20 13 -18 -42 -24 -45 -106 -54 -57 -6 -74 -27 -64 -81 9 -48 9 -104 -1 -167
-8 -48 -7 -48 26 -62 19 -8 78 -24 133 -35 54 -12 139 -37 188 -56 112 -43
142 -44 190 -5 67 55 91 60 287 60 l180 0 26 -34 c30 -39 69 -56 130 -56 44 0
59 8 156 88 29 24 80 57 113 74 79 40 133 76 140 94 9 24 -3 41 -60 84 -57 43
-84 83 -84 125 0 15 -4 24 -10 20 -17 -10 -11 -88 9 -120 12 -21 34 -36 69
-48 42 -14 52 -22 52 -41 0 -33 -24 -51 -117 -84 -50 -19 -107 -49 -149 -81
-56 -43 -74 -51 -110 -51 -30 0 -51 7 -69 23 l-27 23 -3 202 c-3 169 -1 204
11 217 23 22 30 19 51 -22 11 -21 34 -46 51 -56 28 -16 37 -17 69 -6 21 6 61
34 90 62 69 65 78 97 58 210 -27 153 -59 224 -163 366 -67 89 -147 240 -155
291 -4 19 -11 91 -17 160 -13 150 -38 214 -103 261 -74 53 -200 73 -299 47z
m262 -103 c14 -17 15 -17 -24 -33 -35 -16 -39 -12 -27 22 12 29 32 34 51 11z
m-21 -164 c23 -23 34 -71 29 -122 -2 -26 -8 -34 -23 -34 -17 0 -20 6 -17 42 3
35 0 44 -22 58 -24 16 -28 16 -51 1 -31 -20 -34 -67 -6 -93 11 -10 43 -26 71
-36 l52 -18 -7 -60 c-7 -57 -5 -63 28 -117 19 -31 42 -82 52 -112 10 -30 36
-91 57 -134 36 -71 41 -92 50 -190 6 -61 14 -115 18 -120 5 -5 20 -6 34 -2 69
17 75 152 13 278 -20 40 -45 88 -57 106 -12 17 -17 32 -12 32 18 0 64 -63 99
-135 27 -57 33 -81 33 -135 0 -36 -4 -80 -9 -97 -9 -30 -7 -34 20 -50 32 -19
41 -40 10 -23 -34 18 -109 12 -131 -10 -11 -11 -20 -25 -20 -30 0 -5 -8 -10
-18 -10 -45 0 -49 -16 -60 -215 -10 -188 -16 -225 -33 -225 -12 0 -11 59 2
118 7 28 9 58 5 68 -6 15 -14 11 -55 -30 -56 -55 -113 -76 -210 -76 -48 0 -75
5 -99 20 -45 27 -57 25 -33 -6 25 -31 27 -63 6 -90 -13 -18 -14 -17 -15 17 0
24 -10 50 -30 77 -16 23 -30 45 -30 48 0 3 11 15 25 26 16 13 25 29 25 48 0
25 -17 43 -113 123 -62 52 -125 108 -140 126 -32 39 -51 102 -41 144 13 62 21
57 20 -11 -1 -61 2 -74 23 -96 14 -14 28 -26 33 -26 4 0 8 24 8 54 0 89 17
157 65 251 32 65 45 102 45 133 0 27 11 64 30 102 17 33 30 66 30 75 0 25 13
18 56 -31 51 -59 81 -61 150 -9 26 20 64 45 85 55 21 11 40 24 44 30 11 18
-22 11 -88 -20 -93 -44 -127 -48 -161 -18 l-28 24 53 0 c69 -1 256 71 236 90
-4 4 -24 -2 -45 -13 -52 -30 -138 -53 -192 -53 -39 0 -51 5 -79 34 -22 23 -31
40 -27 52 8 27 77 79 85 66 4 -7 12 -8 21 -2 13 8 12 10 -3 10 -12 0 -17 6
-16 18 5 29 -10 69 -27 76 -38 15 -60 -49 -30 -83 10 -11 12 -21 6 -31 -16
-25 -33 4 -38 65 -6 68 14 105 57 105 37 0 51 -18 59 -77 7 -45 9 -48 43 -54
l37 -5 4 47 c7 73 29 99 83 99 31 0 51 -6 64 -19z m-35 -67 c9 -8 16 -23 16
-32 0 -13 -5 -11 -20 8 -29 37 -26 55 4 24z m-240 -10 c3 -9 6 -23 6 -32 -1
-12 -5 -10 -15 8 -8 14 -14 28 -15 33 0 13 18 7 24 -9z m409 -213 c15 -8 27
-22 27 -32 0 -24 -12 -30 -31 -16 -24 18 -52 75 -31 65 4 -2 19 -10 35 -17z
m-633 -313 c0 -13 -29 -48 -41 -48 -4 0 0 13 9 30 17 31 32 39 32 18z"/>
<path d="M1168 1543 c7 -3 16 -2 19 1 4 3 -2 6 -13 5 -11 0 -14 -3 -6 -6z"/>
</g>
</svg>
